<svg width="25" height="25" viewBox="0 0 25 25" fill="none" xmlns="http://www.w3.org/2000/svg">
<path d="M12.4638 24.9942C10.012 24.9903 7.61558 24.2641 5.57392 22.9065C3.53225 21.5488 1.93577 19.6197 0.983832 17.3602C-0.303475 14.3076 -0.328415 10.8692 0.914474 7.79828C2.15736 4.72733 4.56675 2.27418 7.61483 0.976213C9.45041 0.203818 11.4443 -0.117755 13.4296 0.0383999C15.4149 0.194554 17.334 0.823894 19.0263 1.87377C20.7185 2.92364 22.1347 4.36351 23.1564 6.07292C24.1781 7.78233 24.7756 9.71156 24.8988 11.6992L22.0988 8.88521L21.1548 9.83221L21.1708 9.84821L19.5208 11.5042C19.2697 9.70883 18.3453 8.07609 16.9351 6.93696C15.5248 5.79783 13.7342 5.23753 11.9262 5.36964C10.1181 5.50175 8.42795 6.31638 7.19825 7.64841C5.96855 8.98044 5.29133 10.7302 5.30386 12.543C5.31639 14.3558 6.01773 16.0961 7.26572 17.411C8.51371 18.7259 10.215 19.5171 12.0247 19.6242C13.8344 19.7313 15.6171 19.1463 17.0115 17.9878C18.4058 16.8293 19.3076 15.1839 19.5338 13.3852L22.1048 10.7942L24.8728 13.5712C24.614 16.6845 23.1946 19.5869 20.8961 21.7028C18.5976 23.8186 15.5879 24.9934 12.4638 24.9942V24.9942Z" fill="#03008D"/>
</svg>
